<?xml version="1.0" standalone="no"?>
<!DOCTYPE svg PUBLIC "-//W3C//DTD SVG 20010904//EN"
 "http://www.w3.org/TR/2001/REC-SVG-20010904/DTD/svg10.dtd">
<svg version="1.0" xmlns="http://www.w3.org/2000/svg"
 width="700.000000pt" height="700.000000pt" viewBox="0 0 700.000000 700.000000"
 preserveAspectRatio="xMidYMid meet">
<metadata>
Created by potrace 1.14, written by Peter Selinger 2001-2017
</metadata>
<g transform="translate(0.000000,700.000000) scale(0.100000,-0.100000)"
fill="#000000" stroke="none">
<path d="M1697 6124 c-1 -1 -30 -5 -64 -8 -213 -22 -437 -152 -577 -336 -109
-142 -176 -328 -180 -492 0 -27 -5 -38 -16 -39 -105 -4 -198 -68 -247 -167
l-28 -57 -2 -335 c-1 -326 3 -381 32 -445 35 -76 133 -146 220 -159 22 -3 40
-5 40 -6 0 -1985 1 -2114 20 -2185 34 -132 117 -253 225 -327 l46 -32 1 -142
c0 -115 4 -154 21 -211 55 -180 223 -304 412 -306 165 -1 311 86 387 229 41
77 53 132 55 253 l1 99 1456 -2 1456 -1 1 -82 c1 -45 4 -100 8 -123 35 -218
214 -373 430 -373 154 1 290 75 370 202 52 81 67 152 69 314 2 110 6 152 15
155 56 18 182 158 222 246 56 125 54 69 56 1221 1 583 2 1062 3 1065 0 3 17 6
37 8 86 6 186 81 227 172 20 43 21 64 21 405 1 344 0 362 -20 406 -43 94 -132
162 -227 175 -39 6 -43 9 -44 33 -2 309 -207 623 -493 759 -79 37 -178 68
-251 78 -42 6 -3675 14 -3682 8z m1029 -587 c3 -3 -80 -176 -185 -385 -196
-394 -214 -439 -199 -521 33 -190 231 -298 405 -222 93 41 110 68 381 611 139
278 257 509 261 513 8 8 789 12 797 4 3 -2 -83 -179 -190 -393 -106 -214 -197
-405 -201 -424 -31 -141 55 -291 194 -338 19 -7 62 -12 96 -12 78 0 169 42
214 99 17 21 146 269 287 552 141 283 257 515 259 517 7 8 447 3 480 -7 95
-25 181 -111 206 -204 7 -26 10 -287 10 -776 0 -405 0 -742 -1 -748 0 -10
-416 -13 -2040 -13 l-2040 0 -1 23 c-3 149 2 1479 6 1501 9 45 43 104 82 142
60 59 107 77 213 83 111 7 959 5 966 -2z m-301 -2637 c162 -54 243 -238 172
-393 -31 -68 -75 -112 -147 -146 -54 -25 -60 -26 -265 -26 l-210 0 -57 28
c-61 30 -115 85 -144 146 -21 42 -27 142 -13 198 22 86 114 175 206 198 65 16
406 13 458 -5z m2658 -13 c176 -87 221 -316 88 -457 -78 -83 -114 -93 -336
-96 -204 -2 -257 5 -319 44 -54 34 -85 69 -112 127 -74 161 11 348 181 398 37
10 100 14 246 13 191 -2 197 -3 252 -29z"/>
</g>
</svg>
